PathFileType	4	(X/Y/Z)	Patient4_TMGait_0pt2_01_right_05.trc.trc
DataRate	CameraRate	NumFrames	NumMarkers	Units	OrigDataRate	OrigDataStartFrame	OrigNumFrames
45.901639344262	45.901639344262	4	33	mm	45.901639344262	36	       141
Frame#	Time	Sacral			L.Shoulder			Chest			R.Shoulder			Neck			R.ASIS			L.ASIS			R.Thigh.Superior			R.Thigh.Lateral			R.Thigh.Inferior			R.Patella			L.Thigh.Superior			L.Thigh.Lateral			L.Thigh.Inferior			L.Patella			L.Shank.Superior			L.Shank.Lateral			L.Shank.Inferior			R.Shank.Superior			R.Shank.Lateral			R.Shank.Inferior			R.Heel			R.Midfoot.Superior			R.Midfoot.Lateral			R.Toe			L.Heel			L.Midfoot.Lateral			L.Midfoot.Superior			L.Toe			L.Elbow			L.Wrist			R.Elbow			R.Wrist			
		X1	Y1	Z1	X2	Y2	Z2	X3	Y3	Z3	X4	Y4	Z4	X5	Y5	Z5	X6	Y6	Z6	X7	Y7	Z7	X8	Y8	Z8	X9	Y9	Z9	X10	Y10	Z10	X11	Y11	Z11	X12	Y12	Z12	X13	Y13	Z13	X14	Y14	Z14	X15	Y15	Z15	X16	Y16	Z16	X17	Y17	Z17	X18	Y18	Z18	X19	Y19	Z19	X20	Y20	Z20	X21	Y21	Z21	X22	Y22	Z22	X23	Y23	Z23	X24	Y24	Z24	X25	Y25	Z25	X26	Y26	Z26	X27	Y27	Z27	X28	Y28	Z28	X29	Y29	Z29	X30	Y30	Z30	X31	Y31	Z31	X32	Y32	Z32	X33	Y33	Z33	

36	10.092500000000	802.598028892198	1002.589903034770	507.763490988530	1004.715389660734	1437.201807847238	361.946299354367	1073.943310527298	1369.692784408923	540.814353658069	955.025405131855	1441.040787983852	693.570598337343	951.993921302728	1494.993545229553	514.484525530282	1017.771426808096	946.747122664292	653.976703398528	1036.223486701229	963.938737910700	380.428031201479	1068.953303350522	743.060587468744	621.295794182980	993.140351561541	629.186568974098	678.763556861073	1074.769185123352	579.998591534055	600.927209753877	1079.158188857780	489.620860937262	607.839318904915	1039.107941060338	730.667709596935	397.604596176731	932.611989518517	635.184409865116	316.845460795903	993.374863247790	540.267849463571	377.860345492272	978.791342529242	470.650583777127	380.473670286575	938.004607535304	407.613227587642	364.137890438483	828.028973744118	318.947948532172	301.871029562269	854.406014886594	192.883737131009	360.444645292148	1044.066407290070	401.064868904764	614.415309018453	966.907637820342	303.054904998760	678.842610673432	1000.674471405112	205.090372975326	616.091762327325	855.824192228884	44.656126007109	591.561294719313	1028.119912339125	97.373263125307	627.982504563473	939.127856886929	37.829361629928	666.447089811433	1147.421354981150	42.516535398492	656.911977084196	701.873145005659	51.587264256375	384.635290940739	777.074920676304	44.825398136219	305.837776793193	864.492812507157	99.458319533957	335.030939730004	988.137148505844	38.726567224979	305.387780888179	1146.817037318374	1144.049676687292	205.009239966130	1406.061609747002	1142.445115458204	228.144097673374	818.651217118208	1118.455277598591	782.153195166981	818.322625808493	855.470694365372	785.306969105639	
37	10.114285714286	802.571881423896	1003.162369672046	514.337232051110	1003.864405918833	1436.638098066021	364.955380264048	1075.041238337645	1369.706935333207	543.269304168015	958.037205353079	1441.679491901453	697.182283950085	953.471281122975	1495.321504900323	517.856307657299	1018.834073868205	947.102687446561	658.714876834268	1034.965092847335	963.717690171664	384.926601067648	1067.964176529606	742.742483060251	625.315178536499	991.172059460778	629.130758677818	682.451237653773	1071.957911879952	579.694760574307	604.079535884023	1075.548807199757	489.295447821958	610.437555927181	1038.940665785817	730.918523266458	401.883549679488	932.809850937349	635.414949846175	321.090578067594	994.500153817773	540.245288908809	381.346756423051	980.366370222112	469.949406447323	383.309099178879	938.054599937430	407.649365279124	366.798641032097	826.702510625243	320.766053268094	304.475565440455	852.067416004235	193.850143689343	361.499313925640	1040.345195892912	400.914720764941	616.486527738506	963.131116405726	302.626226062210	680.292761660154	996.724172613373	204.995946636236	616.883171226953	851.684311148254	44.582979472011	591.649815505570	1023.977686451417	97.395841537701	628.197167712619	935.000162405044	37.773788951026	666.501343381597	1143.275996999517	42.468364589545	657.034916748043	698.128606062393	54.144346555780	385.105894113863	773.183615400136	46.555328874330	306.238728086046	861.256355351229	100.023152811129	335.400885817134	984.166205381800	38.235999466735	305.323692383862	1137.829686744996	1138.207951627602	208.703822069624	1397.268039854373	1128.097306754006	229.842953621121	824.526058912111	1118.580316312112	790.018934444063	826.433762700193	855.693437573189	795.626540288124	
38	10.136071428571	802.416732822594	1003.685836472941	520.556270128728	1002.833161464238	1436.061145899216	367.685585011092	1075.846425764704	1369.733998043001	545.482255730743	960.627565337047	1442.290026219275	700.433456791341	954.668130764062	1495.618812920941	520.886080091860	1019.637444555479	947.452007792141	663.299371878035	1033.703437067215	963.500810878471	389.300151056279	1066.813824228611	742.455441147261	629.212653882181	989.014055322542	629.094249027151	685.972857526390	1069.017342814416	579.424154578889	607.152976702922	1071.799573959047	489.012021943055	612.991668727377	1039.195498266321	731.198533205443	406.231658110849	933.778519597754	635.415340364283	325.387297335263	996.507475445912	540.136428781980	385.046507472826	982.895703620496	469.043598742865	386.290772631550	938.890808423814	407.521745775869	369.589941742650	826.105259472509	322.615534977724	307.116747323817	850.139316135666	194.845859643954	362.612113069560	1036.507336786910	400.814929932176	618.511946464583	959.206771012856	302.255042212235	681.641546880613	992.731606835045	204.952041392267	617.630144411923	847.530171315945	44.577571643196	591.670048663137	1019.826527739931	97.428309898025	628.366512716436	930.832865077439	37.766260796190	666.490574945947	1139.086672765789	42.394846305161	657.140058884228	694.516224144411	57.042787284595	385.579610010440	769.391334425876	48.484840261866	306.635057058350	858.211941684923	100.636627381034	335.765057335007	980.254787303143	37.797610700081	305.246534585396	1127.810875102212	1132.141523571202	212.366057030280	1387.035487579738	1112.054418630995	231.554471346059	830.571732487436	1118.418561326625	797.452084226144	835.520878745111	855.677755923214	805.449751908336	
39	10.157857142857	802.140610106468	1004.136828821978	526.445526720591	1001.602009292371	1435.472372787711	370.164064008623	1076.351964222047	1369.772821427414	547.476898778431	962.781042479145	1442.858130024899	703.355947056682	955.544846987066	1495.870868791500	523.605863335588	1020.218316165904	947.794703750937	667.737817473425	1032.450293933534	963.291117753767	393.549484239189	1065.578413798516	742.198746548290	632.988712003685	986.768412372740	629.067649510477	689.335850754779	1066.047231254114	579.180296566796	610.139973573895	1068.023474023360	488.751708845775	615.496788574021	1039.920155748998	731.519066654473	410.672585507052	935.581977450489	635.178888010622	329.747886381139	999.476417405423	539.952144439226	388.979811596332	986.442043044509	467.951309016989	389.435135868107	940.609791637753	407.231195929443	372.519060144548	826.339600302881	324.520945578998	309.790053907179	848.702274849526	195.902496212448	363.785667545127	1032.639388497028	400.744976095431	620.487231422810	955.204994662589	301.937952882172	682.898330767760	988.723293051987	204.945339343586	618.333899629454	843.345352346241	44.643948984640	591.631273177711	1015.655156493889	97.467471057850	628.492597726381	926.611664249817	37.808252159582	666.423883863698	1134.843672653520	42.286777545798	657.233178198617	691.098180437834	60.390918351228	386.048264744576	765.741264150287	50.691287223205	307.018558634162	855.417936947196	101.315544219881	336.110960288611	976.392423992300	37.418326105466	305.158136469667	1116.808575808192	1125.932418899219	216.092197361685	1375.204426692640	1094.312452770888	233.358873864049	836.886116977977	1117.920158729919	804.448662026255	845.787763812196	855.406082939539	814.736856597260	
